<svg width="32" height="33" viewBox="0 0 32 33" fill="none" xmlns="http://www.w3.org/2000/svg">
<rect y="0.00439453" width="32" height="32" rx="1" fill="white"/>
<path fill-rule="evenodd" clip-rule="evenodd" d="M20.0153 15.7966C20.2812 15.1393 19.7974 14.4217 19.0883 14.4217H18.9047C18.3525 14.4217 17.9047 13.974 17.9047 13.4217V12.3118C17.9047 11.7295 18.3826 11.7843 18.9714 11.7843H19.0381C19.5904 11.7843 20.0381 11.3366 20.0381 10.7843V10.147C20.0381 9.59469 19.5904 9.14697 19.0381 9.14697H17.9047C17.0561 9.14697 16.2421 9.48041 15.642 10.0739C15.0419 10.6675 14.7047 11.4724 14.7047 12.3118V13.4217C14.7047 13.974 14.257 14.4217 13.7047 14.4217H13.5714C13.0191 14.4217 12.5714 14.8694 12.5714 15.4217V16.0591C12.5714 16.6113 13.0191 17.0591 13.5714 17.0591H13.7047C14.257 17.0591 14.7047 17.5068 14.7047 18.0591V21.8613C14.7047 22.4135 15.1525 22.8613 15.7047 22.8613H16.9047C17.457 22.8613 17.9047 22.4135 17.9047 21.8613V18.0147C17.9047 17.4869 18.3326 17.0591 18.8604 17.0591V17.0591C19.2498 17.0591 19.6003 16.8227 19.7463 16.4617L20.0153 15.7966Z" fill="#9893A3"/>
</svg>
