<svg width="32" height="33" viewBox="0 0 32 33" fill="none" xmlns="http://www.w3.org/2000/svg">
<rect y="0.00439453" width="32" height="32" rx="1" fill="white"/>
<path d="M13.0716 14.0787H10.468V21.7032H13.0716V14.0787Z" fill="#9893A3"/>
<path d="M12.6339 10.5205C12.3858 10.3702 12.0942 10.29 11.7959 10.29C11.5968 10.29 11.3997 10.3257 11.216 10.3951C11.0322 10.4645 10.8653 10.5661 10.725 10.6942C10.5847 10.8223 10.4736 10.9744 10.3982 11.1415C10.3229 11.3087 10.2846 11.4878 10.2858 11.6684C10.2875 11.9392 10.3775 12.2034 10.5445 12.4277C10.7115 12.6521 10.9479 12.8265 11.224 12.929C11.5 13.0315 11.8034 13.0576 12.0957 13.0038C12.3881 12.95 12.6564 12.8189 12.8667 12.6269C13.077 12.4349 13.22 12.1907 13.2775 11.9251C13.3351 11.6594 13.3047 11.3843 13.1901 11.1343C13.0756 10.8843 12.882 10.6707 12.6339 10.5205Z" fill="#9893A3"/>
<path d="M17.2508 14.0783H14.7427L14.7341 21.7186H17.3376V17.9457C17.3376 16.9533 17.5459 15.9923 18.8998 15.9923C20.2536 15.9923 20.2536 17.1344 20.2536 18.0166V21.7029H22.8572V17.5204C22.8572 15.4646 22.3278 13.8893 19.7242 13.8893C19.228 13.8716 18.7358 13.9766 18.3002 14.193C17.8646 14.4094 17.5019 14.7291 17.2508 15.118V14.0783Z" fill="#9893A3"/>
</svg>
