<svg width="32" height="33" viewBox="0 0 32 33" fill="none" xmlns="http://www.w3.org/2000/svg">
<rect y="0.00439453" width="32" height="32" rx="1" fill="white"/>
<g clip-path="url(#clip0_172_3413)">
<path d="M24.2415 11.1941C23.8094 11.8367 23.2794 12.3845 22.6513 12.8375C22.6575 12.959 22.6606 13.0964 22.6606 13.2495C22.6606 14.1004 22.5365 14.9523 22.2884 15.8053C22.0403 16.6583 21.6613 17.4747 21.1514 18.2546C20.6415 19.0346 20.0342 19.7255 19.3293 20.3275C18.6245 20.9294 17.7772 21.4094 16.7876 21.7674C15.7979 22.1254 14.7372 22.3043 13.6056 22.3043C11.8395 22.3043 10.213 21.8276 8.72632 20.874C8.9902 20.9033 9.24327 20.918 9.48556 20.918C10.961 20.918 12.2788 20.4636 13.439 19.5547C12.7511 19.542 12.135 19.3303 11.5907 18.9193C11.0464 18.5084 10.6719 17.9833 10.4671 17.3441C10.6695 17.3827 10.8693 17.4019 11.0665 17.4019C11.3504 17.4019 11.6297 17.3649 11.9044 17.2909C11.1703 17.1438 10.5612 16.7782 10.0773 16.1939C9.59336 15.6096 9.3514 14.9353 9.3514 14.1708V14.1314C9.80203 14.3809 10.2827 14.5136 10.7934 14.5296C10.3585 14.2396 10.0137 13.8615 9.75895 13.3953C9.5042 12.9291 9.37683 12.4245 9.37683 11.8816C9.37683 11.3091 9.5203 10.7759 9.80724 10.2822C10.6056 11.2619 11.573 12.045 12.7095 12.6313C13.8459 13.2177 15.0651 13.5433 16.3671 13.6082C16.3115 13.3768 16.2837 13.1353 16.2836 12.8837C16.2836 12.0053 16.5945 11.2553 17.2162 10.6337C17.8379 10.012 18.5879 9.70117 19.4664 9.70117C20.386 9.70117 21.1607 10.036 21.7903 10.7058C22.5097 10.5633 23.1832 10.3056 23.811 9.93259C23.5691 10.6937 23.1031 11.2809 22.4129 11.6941C23.0473 11.6187 23.6568 11.452 24.2414 11.1941H24.2415Z" fill="#9893A3"/>
</g>
<defs>
<clipPath id="clip0_172_3413">
<rect x="8.72729" y="9.70117" width="15.5152" height="12.6032" rx="1" fill="white"/>
</clipPath>
</defs>
</svg>
